TITLE "GuitarFreaksV2 & DrumManiaV2 SoundTracks DISC2"
FILE "CDImage.ape" WAVE
  TRACK 01 AUDIO
    TITLE "星のカケラ"
    PERFORMER "Yum!Yum!ORANGE"
    INDEX 01 00:00:00
  TRACK 02 AUDIO
    TITLE "完全な命"
    PERFORMER "PAN"
    INDEX 00 03:47:22
    INDEX 01 03:49:10
  TRACK 03 AUDIO
    TITLE "STAY"
    PERFORMER "CHOKE SLEEPER"
    INDEX 00 05:19:67
    INDEX 01 05:21:55
  TRACK 04 AUDIO
    TITLE "LOLITA LET'S(ラ) GO!GO!!GO!!!"
    PERFORMER "ロリータ18号"
    INDEX 00 07:19:05
    INDEX 01 07:20:67
  TRACK 05 AUDIO
    TITLE "Sing A Well"
    PERFORMER "HIGHWAY61"
    INDEX 00 09:07:27
    INDEX 01 09:09:15
  TRACK 06 AUDIO
    TITLE "Metal Queen"
    PERFORMER "Vanilla Ninja"
    INDEX 00 10:30:70
    INDEX 01 10:34:57
  TRACK 07 AUDIO
    TITLE "Blood And Thunder"
    PERFORMER "MASTODON"
    INDEX 00 12:26:15
    INDEX 01 12:28:00
  TRACK 08 AUDIO
    TITLE "リライト"
    PERFORMER "Hedel Bendel"
    INDEX 00 14:31:07
    INDEX 01 14:32:70
  TRACK 09 AUDIO
    TITLE "ツバサ"
    PERFORMER "J MUSIC Corp"
    INDEX 00 16:32:37
    INDEX 01 16:34:22
  TRACK 10 AUDIO
    TITLE "上海ハニー"
    PERFORMER "Guzzle"
    INDEX 00 18:18:02
    INDEX 01 18:19:62
  TRACK 11 AUDIO
    TITLE "南風"
    PERFORMER "津屋知彦"
    INDEX 00 20:03:57
    INDEX 01 20:05:42
  TRACK 12 AUDIO
    TITLE "未来の地図"
    PERFORMER "Ai"
    INDEX 00 21:50:65
    INDEX 01 21:52:52
  TRACK 13 AUDIO
    TITLE "夏の扉"
    PERFORMER "斉藤由佳"
    INDEX 00 23:31:17
    INDEX 01 23:33:05
  TRACK 14 AUDIO
    TITLE "春の歌"
    PERFORMER "J MUSIC Corp"
    INDEX 00 25:28:32
    INDEX 01 25:30:20
  TRACK 15 AUDIO
    TITLE "愛のために。"
    PERFORMER "Ai"
    INDEX 00 27:15:35
    INDEX 01 27:17:22
  TRACK 16 AUDIO
    TITLE "For the future"
    PERFORMER "Long Run Music, Inc"
    INDEX 00 28:55:25
    INDEX 01 28:57:10
  TRACK 17 AUDIO
    TITLE "オープニングBGM"
    PERFORMER "Jimmy Weckl"
    INDEX 00 30:56:72
    INDEX 01 30:59:57
  TRACK 18 AUDIO
    TITLE "セッション・エントリーBGM"
    PERFORMER "Jimmy Weckl"
    INDEX 00 31:24:55
    INDEX 01 31:26:42
  TRACK 19 AUDIO
    TITLE "カード挿入・パスワードBGM"
    PERFORMER "Jimmy Weckl"
    INDEX 00 32:24:07
    INDEX 01 32:25:70
  TRACK 20 AUDIO
    TITLE "モードセレクトBGM"
    PERFORMER "Jimmy Weckl"
    INDEX 00 32:54:45
    INDEX 01 32:56:32
  TRACK 21 AUDIO
    TITLE "リザルトBGM"
    PERFORMER "Jimmy Weckl"
    INDEX 00 33:28:02
    INDEX 01 33:29:65
  TRACK 22 AUDIO
    TITLE "トータルリザルトBGM"
    PERFORMER "Jimmy Weckl"
    INDEX 00 33:53:52
    INDEX 01 33:55:40
  TRACK 23 AUDIO
    TITLE "ギタドチャンコBGM"
    PERFORMER "Jimmy Weckl"
    INDEX 00 34:39:25
    INDEX 01 34:41:12
  TRACK 24 AUDIO
    TITLE "ギタドチャンコBGM2"
    PERFORMER "Jimmy Weckl"
    INDEX 00 35:36:02
    INDEX 01 35:37:62
  TRACK 25 AUDIO
    TITLE "外周ランキングBGM"
    PERFORMER "Jimmy Weckl"
    INDEX 00 36:31:47
    INDEX 01 36:33:34
  TRACK 26 AUDIO
    TITLE "ゲームオーバーBGM"
    PERFORMER "Jimmy Weckl"
    INDEX 00 37:13:10
    INDEX 01 37:14:72
